<svg xmlns="http://www.w3.org/2000/svg" xmlns:xlink="http://www.w3.org/1999/xlink" width="180" zoomAndPan="magnify" viewBox="0 0 135 30.000001" height="40" preserveAspectRatio="xMidYMid meet" version="1.0"><defs><clipPath id="c7a948b764"><path d="M 2.175781 0 L 132.820312 0 L 132.820312 29.03125 L 2.175781 29.03125 Z M 2.175781 0 " clip-rule="nonzero"/></clipPath><clipPath id="a996f4e8b0"><path d="M 35.84375 4.132812 L 40.441406 16.992188 L 31.246094 16.992188 Z M 118.28125 4.132812 L 122.878906 16.992188 L 113.679688 16.992188 Z M 2.175781 0.765625 L 2.175781 1.027344 C 2.949219 1.089844 3.636719 1.234375 4.234375 1.457031 C 4.742188 1.695312 5.222656 2.082031 5.671875 2.617188 C 6.121094 3.152344 6.613281 3.949219 7.148438 5.007812 L 13.804688 17.195312 L 13.804688 26.414062 C 13.804688 27.160156 13.605469 27.660156 13.207031 27.90625 C 12.820312 28.144531 11.960938 28.300781 10.628906 28.375 L 10.628906 28.636719 L 19.9375 28.636719 L 19.9375 28.375 C 18.605469 28.300781 17.738281 28.144531 17.339844 27.90625 C 16.953125 27.660156 16.757812 27.160156 16.757812 26.414062 L 16.757812 16.84375 L 23.113281 5.402344 C 23.996094 3.78125 24.800781 2.6875 25.523438 2.113281 C 26.296875 1.5 27.257812 1.140625 28.402344 1.027344 L 28.402344 0.765625 L 19.824219 0.765625 L 19.824219 1.027344 C 21.992188 1.164062 23.074219 1.769531 23.074219 2.839844 C 23.074219 3.425781 22.820312 4.164062 22.308594 5.046875 L 16.421875 15.777344 L 9.785156 3.683594 C 9.363281 2.886719 9.148438 2.335938 9.148438 2.039062 C 9.148438 1.402344 10.015625 1.066406 11.746094 1.027344 L 11.746094 0.765625 Z M 37.339844 0 C 36.753906 0.734375 35.84375 1.257812 34.609375 1.570312 L 35.300781 3.328125 L 27.804688 24.152344 C 27.269531 25.597656 26.679688 26.632812 26.03125 27.253906 C 25.394531 27.867188 24.574219 28.238281 23.5625 28.375 L 23.5625 28.636719 L 31.636719 28.636719 L 31.636719 28.375 C 30.429688 28.300781 29.558594 28.097656 29.023438 27.761719 C 28.484375 27.410156 28.21875 26.886719 28.21875 26.191406 C 28.21875 25.667969 28.347656 25.054688 28.613281 24.359375 L 30.984375 17.683594 L 40.707031 17.683594 L 43.621094 25.796875 C 43.820312 26.371094 43.917969 26.796875 43.917969 27.070312 C 43.917969 27.515625 43.6875 27.847656 43.230469 28.058594 C 42.78125 28.257812 41.988281 28.363281 40.855469 28.375 L 40.855469 28.636719 L 50.386719 28.636719 L 50.386719 28.375 C 49.589844 28.316406 48.941406 28.171875 48.445312 27.945312 C 48.007812 27.734375 47.640625 27.394531 47.34375 26.917969 C 47.054688 26.445312 46.707031 25.652344 46.296875 24.546875 L 38.984375 4.449219 C 38.238281 2.40625 37.761719 0.921875 37.5625 0 Z M 119.773438 0 C 119.1875 0.734375 118.28125 1.257812 117.046875 1.570312 L 117.738281 3.328125 L 110.242188 24.152344 C 109.703125 25.597656 109.113281 26.632812 108.464844 27.253906 C 107.828125 27.867188 107.007812 28.238281 105.996094 28.375 L 105.996094 28.636719 L 114.074219 28.636719 L 114.074219 28.375 C 112.863281 28.300781 111.992188 28.097656 111.457031 27.761719 C 110.921875 27.410156 110.652344 26.886719 110.652344 26.191406 C 110.652344 25.667969 110.785156 25.054688 111.046875 24.359375 L 113.421875 17.683594 L 123.140625 17.683594 L 126.054688 25.796875 C 126.253906 26.371094 126.355469 26.796875 126.355469 27.070312 C 126.355469 27.515625 126.125 27.847656 125.664062 28.058594 C 125.214844 28.257812 124.421875 28.363281 123.289062 28.375 L 123.289062 28.636719 L 132.820312 28.636719 L 132.820312 28.375 C 132.023438 28.316406 131.375 28.171875 130.878906 27.945312 C 130.441406 27.734375 130.074219 27.394531 129.777344 26.917969 C 129.488281 26.445312 129.140625 25.652344 128.730469 24.546875 L 121.417969 4.449219 C 120.671875 2.40625 120.199219 0.921875 120 0 Z M 45.375 0.765625 L 45.375 1.027344 C 46.648438 1.140625 47.511719 1.414062 47.972656 1.851562 C 48.4375 2.273438 48.941406 3.277344 49.488281 4.859375 L 57.789062 29.011719 L 58.292969 29.011719 L 65.285156 8.65625 L 72.257812 29.011719 L 72.800781 29.011719 L 80.949219 5.253906 C 81.496094 3.746094 82.078125 2.699219 82.6875 2.113281 C 83.253906 1.578125 84.035156 1.230469 85.027344 1.070312 C 85.632812 1.144531 86.179688 1.273438 86.667969 1.457031 C 87.179688 1.695312 87.660156 2.082031 88.109375 2.617188 C 88.558594 3.152344 89.050781 3.949219 89.585938 5.007812 L 96.242188 17.195312 L 96.242188 26.414062 C 96.242188 27.160156 96.042969 27.660156 95.640625 27.90625 C 95.253906 28.144531 94.394531 28.300781 93.0625 28.375 L 93.0625 28.636719 L 102.371094 28.636719 L 102.371094 28.375 C 101.039062 28.300781 100.171875 28.144531 99.773438 27.90625 C 99.386719 27.660156 99.195312 27.160156 99.195312 26.414062 L 99.195312 16.84375 L 105.550781 5.402344 C 106.433594 3.78125 107.238281 2.6875 107.960938 2.113281 C 108.734375 1.5 109.695312 1.140625 110.839844 1.027344 L 110.839844 0.765625 L 102.257812 0.765625 L 102.257812 1.027344 C 104.429688 1.164062 105.511719 1.769531 105.511719 2.839844 C 105.511719 3.425781 105.257812 4.164062 104.746094 5.046875 L 98.855469 15.777344 L 92.222656 3.683594 C 91.796875 2.886719 91.585938 2.335938 91.585938 2.039062 C 91.585938 1.402344 92.449219 1.066406 94.183594 1.027344 L 94.183594 0.765625 L 76.742188 0.765625 L 76.742188 1.027344 C 78.050781 1.101562 79 1.320312 79.585938 1.683594 C 80.183594 2.042969 80.480469 2.578125 80.480469 3.289062 C 80.480469 3.726562 80.355469 4.3125 80.109375 5.046875 L 73.601562 24.1875 L 66.667969 3.609375 C 66.492188 3.132812 66.40625 2.710938 66.40625 2.335938 C 66.40625 1.890625 66.632812 1.5625 67.078125 1.363281 C 67.527344 1.152344 68.3125 1.042969 69.433594 1.027344 L 69.433594 0.765625 L 59.863281 0.765625 L 59.863281 1.027344 C 60.636719 1.089844 61.296875 1.234375 61.84375 1.457031 C 62.28125 1.671875 62.644531 2.011719 62.929688 2.484375 C 63.230469 2.960938 63.585938 3.75 63.996094 4.859375 L 64.875 7.421875 L 59.097656 24.226562 L 52.164062 3.609375 C 51.988281 3.070312 51.902344 2.648438 51.902344 2.335938 C 51.902344 1.890625 52.121094 1.5625 52.554688 1.363281 C 53.003906 1.152344 53.789062 1.042969 54.910156 1.027344 L 54.910156 0.765625 Z M 45.375 0.765625 " clip-rule="nonzero"/></clipPath></defs><g clip-path="url(#c7a948b764)"><g clip-path="url(#a996f4e8b0)"><path fill="#111b1e" d="M 2.175781 0 L 132.84375 0 L 132.84375 29.011719 L 2.175781 29.011719 Z M 2.175781 0 " fill-opacity="1" fill-rule="nonzero"/></g></g></svg>